<svg width="120" height="120" viewBox="0 0 120 120" xmlns="http://www.w3.org/2000/svg" role="img" aria-label="cute medical mascot">
  <defs>
    <linearGradient id="bg" x1="0" y1="0" x2="1" y2="1">
      <stop offset="0" stop-color="#dbeafe"/>
      <stop offset="1" stop-color="#fce7f3"/>
    </linearGradient>
  </defs>
  <circle cx="60" cy="60" r="54" fill="url(#bg)"/>
  <ellipse cx="60" cy="63" rx="29" ry="31" fill="#fff7ed" stroke="#26364a" stroke-width="2"/>
  <path d="M35 51c3-18 20-26 35-20 10 4 16 12 17 23-12-8-28-9-52-3z" fill="#1f2937"/>
  <path d="M38 49c5-10 17-17 31-15 8 1 16 7 18 18-9-4-18-5-28-4-7 1-14 1-21 1z" fill="#374151" opacity=".95"/>
  <circle cx="49" cy="65" r="4" fill="#111827"/>
  <circle cx="72" cy="65" r="4" fill="#111827"/>
  <circle cx="47" cy="63" r="1.3" fill="#fff"/>
  <circle cx="70" cy="63" r="1.3" fill="#fff"/>
  <path d="M54 78c5 4 10 4 15 0" fill="none" stroke="#b45309" stroke-width="2" stroke-linecap="round"/>
  <rect x="27" y="84" width="66" height="18" rx="9" fill="#ffffff" stroke="#26364a" stroke-width="2"/>
  <path d="M46 84v18M74 84v18" stroke="#dbe3ee" stroke-width="2"/>
  <path d="M79 30l12-12m-2 2l10 10" stroke="#155eef" stroke-width="4" stroke-linecap="round"/>
  <rect x="84" y="32" width="14" height="44" rx="7" transform="rotate(-18 91 54)" fill="#ffffff" stroke="#26364a" stroke-width="2"/>
  <path d="M86 42l12-4M88 50l12-4M90 58l12-4" stroke="#94a3b8" stroke-width="2"/>
  <path d="M91 31l-5-13" stroke="#26364a" stroke-width="2" stroke-linecap="round"/>
  <circle cx="42" cy="76" r="6" fill="#fecaca" opacity=".6"/>
  <circle cx="80" cy="76" r="6" fill="#fecaca" opacity=".6"/>
</svg>
